<mxfile host="app.diagrams.net" modified="2024-01-15T14:16:43.411Z" agent="Mozilla/5.0 (Windows NT 10.0; Win64; x64) AppleWebKit/537.36 (KHTML, like Gecko) Chrome/120.0.0.0 Safari/537.36" etag="kgTioWfocnX4YHcj4wKB" version="22.1.18" type="github">
  <diagram name="Page-1" id="YrSxWxLyRjSWfUr2A1FE">
    <mxGraphModel dx="1323" dy="700" grid="1" gridSize="10" guides="1" tooltips="1" connect="1" arrows="1" fold="1" page="1" pageScale="1" pageWidth="3300" pageHeight="4681" math="0" shadow="0">
      <root>
        <mxCell id="0" />
        <mxCell id="1" parent="0" />
        <mxCell id="hAp_ZLNcaUyqrXGCYLoH-6" value="&lt;b&gt;: Tableau de bord&lt;/b&gt;" style="rounded=0;whiteSpace=wrap;html=1;rotation=0;" vertex="1" parent="1">
          <mxGeometry x="360" y="160" width="170" height="110" as="geometry" />
        </mxCell>
        <mxCell id="hAp_ZLNcaUyqrXGCYLoH-17" value="&lt;b&gt;: Batterie&lt;/b&gt;" style="rounded=0;whiteSpace=wrap;html=1;rotation=0;" vertex="1" parent="1">
          <mxGeometry x="360" y="427.5" width="170" height="95" as="geometry" />
        </mxCell>
        <mxCell id="hAp_ZLNcaUyqrXGCYLoH-18" value="&lt;b&gt;: PÃ©dale&lt;/b&gt;" style="rounded=0;whiteSpace=wrap;html=1;rotation=0;" vertex="1" parent="1">
          <mxGeometry x="360" y="680" width="110" height="95" as="geometry" />
        </mxCell>
        <mxCell id="hAp_ZLNcaUyqrXGCYLoH-19" value="&lt;b&gt;: Moteur&lt;/b&gt;" style="rounded=0;whiteSpace=wrap;html=1;rotation=0;" vertex="1" parent="1">
          <mxGeometry x="920" y="427.5" width="160" height="90" as="geometry" />
        </mxCell>
        <mxCell id="hAp_ZLNcaUyqrXGCYLoH-20" value="&lt;b&gt;chaine pignon&lt;/b&gt;" style="rounded=0;whiteSpace=wrap;html=1;rotation=0;" vertex="1" parent="1">
          <mxGeometry x="620" y="680" width="120" height="95" as="geometry" />
        </mxCell>
        <mxCell id="hAp_ZLNcaUyqrXGCYLoH-21" value="&lt;b&gt;Roue&amp;nbsp;&lt;/b&gt;" style="rounded=0;whiteSpace=wrap;html=1;rotation=0;" vertex="1" parent="1">
          <mxGeometry x="945" y="680" width="110" height="95" as="geometry" />
        </mxCell>
        <mxCell id="hAp_ZLNcaUyqrXGCYLoH-24" value="" style="rounded=0;whiteSpace=wrap;html=1;shadow=0;" vertex="1" parent="1">
          <mxGeometry x="340" y="205" width="40" height="20" as="geometry" />
        </mxCell>
        <mxCell id="hAp_ZLNcaUyqrXGCYLoH-25" value="" style="endArrow=classicThin;html=1;rounded=0;endFill=1;shadow=0;" edge="1" parent="1">
          <mxGeometry width="50" height="50" relative="1" as="geometry">
            <mxPoint x="350" y="214.97000000000003" as="sourcePoint" />
            <mxPoint x="370" y="214.76" as="targetPoint" />
          </mxGeometry>
        </mxCell>
        <mxCell id="hAp_ZLNcaUyqrXGCYLoH-36" style="edgeStyle=orthogonalEdgeStyle;rounded=0;orthogonalLoop=1;jettySize=auto;html=1;exitX=0.5;exitY=0;exitDx=0;exitDy=0;entryX=0.5;entryY=1;entryDx=0;entryDy=0;endArrow=none;endFill=0;" edge="1" parent="1" source="hAp_ZLNcaUyqrXGCYLoH-26" target="hAp_ZLNcaUyqrXGCYLoH-34">
          <mxGeometry relative="1" as="geometry" />
        </mxCell>
        <mxCell id="hAp_ZLNcaUyqrXGCYLoH-26" value="" style="rounded=0;whiteSpace=wrap;html=1;shadow=0;" vertex="1" parent="1">
          <mxGeometry x="420" y="410" width="30" height="30" as="geometry" />
        </mxCell>
        <mxCell id="hAp_ZLNcaUyqrXGCYLoH-27" value="" style="endArrow=classicThin;html=1;rounded=0;endFill=1;shadow=0;" edge="1" parent="1">
          <mxGeometry width="50" height="50" relative="1" as="geometry">
            <mxPoint x="434.81" y="435" as="sourcePoint" />
            <mxPoint x="434.81" y="415" as="targetPoint" />
          </mxGeometry>
        </mxCell>
        <mxCell id="hAp_ZLNcaUyqrXGCYLoH-30" style="edgeStyle=orthogonalEdgeStyle;rounded=0;orthogonalLoop=1;jettySize=auto;html=1;exitX=1;exitY=0.5;exitDx=0;exitDy=0;entryX=0;entryY=0.5;entryDx=0;entryDy=0;endArrow=none;endFill=0;" edge="1" parent="1" source="hAp_ZLNcaUyqrXGCYLoH-28" target="hAp_ZLNcaUyqrXGCYLoH-24">
          <mxGeometry relative="1" as="geometry" />
        </mxCell>
        <mxCell id="hAp_ZLNcaUyqrXGCYLoH-28" value="" style="rounded=0;whiteSpace=wrap;html=1;shadow=0;" vertex="1" parent="1">
          <mxGeometry x="210" y="205" width="40" height="20" as="geometry" />
        </mxCell>
        <mxCell id="hAp_ZLNcaUyqrXGCYLoH-29" value="" style="endArrow=classicThin;html=1;rounded=0;endFill=1;shadow=0;" edge="1" parent="1">
          <mxGeometry width="50" height="50" relative="1" as="geometry">
            <mxPoint x="220" y="214.97000000000003" as="sourcePoint" />
            <mxPoint x="240" y="214.76" as="targetPoint" />
          </mxGeometry>
        </mxCell>
        <mxCell id="hAp_ZLNcaUyqrXGCYLoH-34" value="" style="rounded=0;whiteSpace=wrap;html=1;shadow=0;" vertex="1" parent="1">
          <mxGeometry x="420" y="260" width="30" height="30" as="geometry" />
        </mxCell>
        <mxCell id="hAp_ZLNcaUyqrXGCYLoH-35" value="" style="endArrow=classicThin;html=1;rounded=0;endFill=1;shadow=0;" edge="1" parent="1">
          <mxGeometry width="50" height="50" relative="1" as="geometry">
            <mxPoint x="434.81" y="285" as="sourcePoint" />
            <mxPoint x="434.81" y="265" as="targetPoint" />
          </mxGeometry>
        </mxCell>
        <mxCell id="hAp_ZLNcaUyqrXGCYLoH-39" value="" style="rounded=0;whiteSpace=wrap;html=1;shadow=0;" vertex="1" parent="1">
          <mxGeometry x="340" y="465" width="40" height="20" as="geometry" />
        </mxCell>
        <mxCell id="hAp_ZLNcaUyqrXGCYLoH-40" value="" style="endArrow=classicThin;html=1;rounded=0;endFill=1;shadow=0;" edge="1" parent="1">
          <mxGeometry width="50" height="50" relative="1" as="geometry">
            <mxPoint x="350" y="474.97" as="sourcePoint" />
            <mxPoint x="370" y="474.76" as="targetPoint" />
          </mxGeometry>
        </mxCell>
        <mxCell id="hAp_ZLNcaUyqrXGCYLoH-41" value="" style="rounded=0;whiteSpace=wrap;html=1;shadow=0;" vertex="1" parent="1">
          <mxGeometry x="330" y="717.5" width="40" height="20" as="geometry" />
        </mxCell>
        <mxCell id="hAp_ZLNcaUyqrXGCYLoH-42" value="" style="endArrow=classicThin;html=1;rounded=0;endFill=1;shadow=0;" edge="1" parent="1">
          <mxGeometry width="50" height="50" relative="1" as="geometry">
            <mxPoint x="340" y="727.47" as="sourcePoint" />
            <mxPoint x="360" y="727.26" as="targetPoint" />
          </mxGeometry>
        </mxCell>
        <mxCell id="hAp_ZLNcaUyqrXGCYLoH-44" value="" style="rounded=0;whiteSpace=wrap;html=1;shadow=0;" vertex="1" parent="1">
          <mxGeometry x="590" y="717.5" width="40" height="20" as="geometry" />
        </mxCell>
        <mxCell id="hAp_ZLNcaUyqrXGCYLoH-45" value="" style="endArrow=classicThin;html=1;rounded=0;endFill=1;shadow=0;" edge="1" parent="1">
          <mxGeometry width="50" height="50" relative="1" as="geometry">
            <mxPoint x="600" y="727.47" as="sourcePoint" />
            <mxPoint x="620" y="727.26" as="targetPoint" />
          </mxGeometry>
        </mxCell>
        <mxCell id="hAp_ZLNcaUyqrXGCYLoH-48" value="" style="rounded=0;whiteSpace=wrap;html=1;shadow=0;" vertex="1" parent="1">
          <mxGeometry x="460" y="717.5" width="40" height="20" as="geometry" />
        </mxCell>
        <mxCell id="hAp_ZLNcaUyqrXGCYLoH-49" value="" style="endArrow=classicThin;html=1;rounded=0;endFill=1;shadow=0;" edge="1" parent="1">
          <mxGeometry width="50" height="50" relative="1" as="geometry">
            <mxPoint x="470" y="727.47" as="sourcePoint" />
            <mxPoint x="490" y="727.26" as="targetPoint" />
          </mxGeometry>
        </mxCell>
        <mxCell id="hAp_ZLNcaUyqrXGCYLoH-56" value="" style="rounded=0;whiteSpace=wrap;html=1;shadow=0;" vertex="1" parent="1">
          <mxGeometry x="730" y="717.5" width="30" height="20" as="geometry" />
        </mxCell>
        <mxCell id="hAp_ZLNcaUyqrXGCYLoH-57" value="" style="endArrow=classicThin;html=1;rounded=0;endFill=1;shadow=0;" edge="1" parent="1">
          <mxGeometry width="50" height="50" relative="1" as="geometry">
            <mxPoint x="730" y="727.47" as="sourcePoint" />
            <mxPoint x="750" y="727.26" as="targetPoint" />
          </mxGeometry>
        </mxCell>
        <mxCell id="hAp_ZLNcaUyqrXGCYLoH-58" value="" style="rounded=0;whiteSpace=wrap;html=1;shadow=0;" vertex="1" parent="1">
          <mxGeometry x="920" y="717.5" width="40" height="20" as="geometry" />
        </mxCell>
        <mxCell id="hAp_ZLNcaUyqrXGCYLoH-59" value="" style="endArrow=classicThin;html=1;rounded=0;endFill=1;shadow=0;" edge="1" parent="1">
          <mxGeometry width="50" height="50" relative="1" as="geometry">
            <mxPoint x="930" y="727.47" as="sourcePoint" />
            <mxPoint x="950" y="727.26" as="targetPoint" />
          </mxGeometry>
        </mxCell>
        <mxCell id="hAp_ZLNcaUyqrXGCYLoH-70" value="" style="rounded=0;whiteSpace=wrap;html=1;shadow=0;" vertex="1" parent="1">
          <mxGeometry x="985" y="507.5" width="30" height="30" as="geometry" />
        </mxCell>
        <mxCell id="hAp_ZLNcaUyqrXGCYLoH-81" value="" style="endArrow=classic;html=1;rounded=0;" edge="1" parent="1">
          <mxGeometry width="50" height="50" relative="1" as="geometry">
            <mxPoint x="999.6399999999999" y="512.5" as="sourcePoint" />
            <mxPoint x="999.6399999999999" y="532.5" as="targetPoint" />
          </mxGeometry>
        </mxCell>
        <mxCell id="hAp_ZLNcaUyqrXGCYLoH-84" value="" style="rounded=0;whiteSpace=wrap;html=1;shadow=0;" vertex="1" parent="1">
          <mxGeometry x="985" y="660" width="30" height="30" as="geometry" />
        </mxCell>
        <mxCell id="hAp_ZLNcaUyqrXGCYLoH-85" value="" style="endArrow=classic;html=1;rounded=0;" edge="1" parent="1">
          <mxGeometry width="50" height="50" relative="1" as="geometry">
            <mxPoint x="999.6399999999999" y="665" as="sourcePoint" />
            <mxPoint x="999.6399999999999" y="685" as="targetPoint" />
          </mxGeometry>
        </mxCell>
        <mxCell id="hAp_ZLNcaUyqrXGCYLoH-86" value="&lt;b&gt;:Controleur&lt;/b&gt;" style="rounded=0;whiteSpace=wrap;html=1;rotation=0;" vertex="1" parent="1">
          <mxGeometry x="620" y="430" width="160" height="90" as="geometry" />
        </mxCell>
        <mxCell id="hAp_ZLNcaUyqrXGCYLoH-88" value="ContrÃ´leur qui gÃ¨re la distribution d&#39;Ã©nergie." style="text;whiteSpace=wrap;fontSize=15;" vertex="1" parent="1">
          <mxGeometry x="1050" y="90" width="330" height="30" as="geometry" />
        </mxCell>
        <mxCell id="hAp_ZLNcaUyqrXGCYLoH-89" style="edgeStyle=orthogonalEdgeStyle;rounded=0;orthogonalLoop=1;jettySize=auto;html=1;exitX=1;exitY=0.5;exitDx=0;exitDy=0;entryX=0;entryY=0.5;entryDx=0;entryDy=0;endArrow=none;endFill=0;" edge="1" parent="1">
          <mxGeometry relative="1" as="geometry">
            <mxPoint x="250" y="474.23" as="sourcePoint" />
            <mxPoint x="340" y="474.23" as="targetPoint" />
          </mxGeometry>
        </mxCell>
        <mxCell id="hAp_ZLNcaUyqrXGCYLoH-90" style="edgeStyle=orthogonalEdgeStyle;rounded=0;orthogonalLoop=1;jettySize=auto;html=1;exitX=1;exitY=0.5;exitDx=0;exitDy=0;entryX=0;entryY=0.5;entryDx=0;entryDy=0;endArrow=none;endFill=0;" edge="1" parent="1">
          <mxGeometry relative="1" as="geometry">
            <mxPoint x="240" y="726.73" as="sourcePoint" />
            <mxPoint x="330" y="726.73" as="targetPoint" />
          </mxGeometry>
        </mxCell>
        <mxCell id="hAp_ZLNcaUyqrXGCYLoH-91" style="edgeStyle=orthogonalEdgeStyle;rounded=0;orthogonalLoop=1;jettySize=auto;html=1;exitX=1;exitY=0.5;exitDx=0;exitDy=0;entryX=0;entryY=0.5;entryDx=0;entryDy=0;endArrow=none;endFill=0;" edge="1" parent="1">
          <mxGeometry relative="1" as="geometry">
            <mxPoint x="500" y="727.02" as="sourcePoint" />
            <mxPoint x="590" y="727.02" as="targetPoint" />
          </mxGeometry>
        </mxCell>
        <mxCell id="hAp_ZLNcaUyqrXGCYLoH-92" style="edgeStyle=orthogonalEdgeStyle;rounded=0;orthogonalLoop=1;jettySize=auto;html=1;exitX=1;exitY=0.5;exitDx=0;exitDy=0;endArrow=none;endFill=0;entryX=0;entryY=0.5;entryDx=0;entryDy=0;" edge="1" parent="1" target="hAp_ZLNcaUyqrXGCYLoH-58">
          <mxGeometry relative="1" as="geometry">
            <mxPoint x="760" y="727.02" as="sourcePoint" />
            <mxPoint x="840" y="727" as="targetPoint" />
          </mxGeometry>
        </mxCell>
        <mxCell id="hAp_ZLNcaUyqrXGCYLoH-93" value="&lt;b&gt;: Capteur&lt;/b&gt;" style="rounded=0;whiteSpace=wrap;html=1;rotation=0;" vertex="1" parent="1">
          <mxGeometry x="937.5" y="240" width="142.5" height="60" as="geometry" />
        </mxCell>
        <mxCell id="hAp_ZLNcaUyqrXGCYLoH-94" style="edgeStyle=orthogonalEdgeStyle;rounded=0;orthogonalLoop=1;jettySize=auto;html=1;exitX=0.25;exitY=0;exitDx=0;exitDy=0;" edge="1" parent="1" source="hAp_ZLNcaUyqrXGCYLoH-19">
          <mxGeometry relative="1" as="geometry">
            <mxPoint x="961" y="290" as="targetPoint" />
          </mxGeometry>
        </mxCell>
        <mxCell id="hAp_ZLNcaUyqrXGCYLoH-95" value="&lt;b&gt;: Microcontroleur&lt;/b&gt;" style="rounded=0;whiteSpace=wrap;html=1;rotation=0;" vertex="1" parent="1">
          <mxGeometry x="640" y="170" width="170" height="110" as="geometry" />
        </mxCell>
        <mxCell id="hAp_ZLNcaUyqrXGCYLoH-98" style="edgeStyle=orthogonalEdgeStyle;rounded=0;orthogonalLoop=1;jettySize=auto;html=1;exitX=0.25;exitY=0;exitDx=0;exitDy=0;entryX=0.122;entryY=1.012;entryDx=0;entryDy=0;entryPerimeter=0;" edge="1" parent="1" source="hAp_ZLNcaUyqrXGCYLoH-86" target="hAp_ZLNcaUyqrXGCYLoH-95">
          <mxGeometry relative="1" as="geometry" />
        </mxCell>
      </root>
    </mxGraphModel>
  </diagram>
</mxfile>
